<?xml version="1.0" standalone="no"?>
<!DOCTYPE svg PUBLIC "-//W3C//DTD SVG 20010904//EN"
 "http://www.w3.org/TR/2001/REC-SVG-20010904/DTD/svg10.dtd">
<svg version="1.0" xmlns="http://www.w3.org/2000/svg"
 width="512.000000pt" height="512.000000pt" viewBox="0 0 512.000000 512.000000"
 preserveAspectRatio="xMidYMid meet">
<metadata>
Created by potrace 1.14, written by Peter Selinger 2001-2017
</metadata>
<g transform="translate(0.000000,512.000000) scale(0.100000,-0.100000)"
fill="#000000" stroke="none">
<path d="M1963 4035 c-74 -16 -137 -43 -196 -83 -64 -45 -95 -76 -192 -197
-49 -60 -102 -126 -119 -146 -17 -19 -40 -46 -51 -60 -11 -13 -40 -49 -65 -79
-25 -30 -47 -57 -50 -60 -3 -3 -23 -27 -45 -55 -22 -27 -53 -66 -70 -86 -16
-19 -39 -46 -50 -60 -11 -13 -40 -49 -65 -79 -25 -30 -52 -64 -61 -75 -24 -29
-228 -276 -247 -300 -9 -11 -55 -68 -102 -125 -46 -58 -87 -107 -90 -110 -3
-3 -35 -41 -70 -85 -35 -44 -67 -82 -70 -85 -3 -3 -33 -39 -65 -80 -32 -41
-62 -77 -65 -80 -3 -3 -24 -27 -45 -55 -22 -27 -48 -59 -58 -70 -125 -138
-178 -255 -182 -405 -4 -139 23 -233 94 -339 105 -155 286 -249 476 -249 100
0 156 13 251 58 82 40 168 113 229 195 17 21 37 46 45 55 8 9 29 33 45 54 17
21 37 47 47 58 9 10 30 36 46 56 39 48 51 61 234 283 84 102 169 205 188 229
19 24 71 87 115 141 44 53 106 129 139 169 32 39 62 68 66 63 4 -4 71 -134
150 -288 444 -871 417 -820 475 -886 170 -192 481 -244 703 -117 89 51 128 86
227 209 39 47 119 146 180 220 60 74 116 142 125 153 8 10 20 23 25 30 6 6 40
47 75 91 36 43 73 88 82 100 9 11 44 54 78 95 88 106 88 107 160 195 36 44 67
82 70 85 5 5 102 123 180 220 19 24 73 88 119 144 46 55 140 171 209 256 69
85 133 162 141 170 33 34 91 136 113 198 18 55 22 88 22 182 0 103 -3 122 -29
185 -56 137 -132 228 -250 296 -101 58 -188 79 -314 75 -183 -6 -325 -84 -451
-245 -19 -24 -40 -49 -45 -55 -6 -6 -28 -33 -50 -61 -47 -59 -76 -94 -90 -109
-6 -6 -47 -57 -92 -112 -45 -56 -88 -108 -95 -115 -8 -8 -39 -45 -70 -84 -31
-38 -103 -127 -160 -196 -56 -69 -119 -145 -138 -169 -120 -148 -184 -220
-190 -213 -4 4 -74 139 -155 298 -319 627 -399 782 -426 820 -129 188 -366
280 -596 230z"/>
</g>
</svg>
